%TF.GenerationSoftware,KiCad,Pcbnew,10.0.1*%
%TF.CreationDate,2026-05-01T00:09:41-07:00*%
%TF.ProjectId,PCB3-R,50434233-2d52-42e6-9b69-6361645f7063,rev?*%
%TF.SameCoordinates,Original*%
%TF.FileFunction,Copper,L1,Top*%
%TF.FilePolarity,Positive*%
%FSLAX46Y46*%
G04 Gerber Fmt 4.6, Leading zero omitted, Abs format (unit mm)*
G04 Created by KiCad (PCBNEW 10.0.1) date 2026-05-01 00:09:41*
%MOMM*%
%LPD*%
G01*
G04 APERTURE LIST*
G04 Aperture macros list*
%AMFreePoly0*
4,1,102,0.085294,0.150491,0.085765,0.150441,0.169765,0.137441,0.170296,0.137329,0.252296,0.115329,0.252826,0.115154,0.331826,0.084154,0.332236,0.083972,0.408236,0.045972,0.408733,0.045687,0.480733,-0.001313,0.481131,-0.001601,0.547131,-0.054601,0.547536,-0.054964,0.607536,-0.114964,0.607899,-0.115369,0.660899,-0.181369,0.661187,-0.181767,0.708187,-0.253767,0.708472,-0.254264,
0.746472,-0.330264,0.746654,-0.330674,0.777654,-0.409674,0.777829,-0.410204,0.799829,-0.492204,0.799941,-0.492735,0.812941,-0.576735,0.812991,-0.577206,0.817991,-0.662206,0.816737,-0.665822,0.813294,-0.667491,0.813000,-0.667500,0.512000,-0.667500,0.508464,-0.666036,0.507003,-0.662685,0.505014,-0.609006,0.496114,-0.556591,0.482239,-0.506049,0.463414,-0.456509,0.439652,-0.408984,
0.410940,-0.364431,0.377284,-0.322856,0.339644,-0.285216,0.298068,-0.251559,0.253516,-0.222848,0.205990,-0.199085,0.156450,-0.180260,0.105908,-0.166385,0.053493,-0.157485,0.000000,-0.155503,-0.053493,-0.157485,-0.105908,-0.166385,-0.156450,-0.180260,-0.205990,-0.199085,-0.253516,-0.222848,-0.298068,-0.251559,-0.339644,-0.285216,-0.377284,-0.322856,-0.410940,-0.364431,-0.439652,-0.408984,
-0.463414,-0.456509,-0.482239,-0.506049,-0.496114,-0.556591,-0.505014,-0.609006,-0.507003,-0.662685,-0.508598,-0.666164,-0.512000,-0.667500,-0.813000,-0.667500,-0.816536,-0.666036,-0.818000,-0.662500,-0.817991,-0.662206,-0.812991,-0.577206,-0.812941,-0.576735,-0.799941,-0.492735,-0.799829,-0.492204,-0.777829,-0.410204,-0.777654,-0.409674,-0.746654,-0.330674,-0.746472,-0.330264,-0.708472,-0.254264,
-0.708187,-0.253767,-0.661187,-0.181767,-0.660899,-0.181369,-0.607899,-0.115369,-0.607536,-0.114964,-0.547536,-0.054964,-0.547131,-0.054601,-0.481131,-0.001601,-0.480733,-0.001313,-0.408733,0.045687,-0.408236,0.045972,-0.332236,0.083972,-0.331826,0.084154,-0.252826,0.115154,-0.252296,0.115329,-0.170296,0.137329,-0.169765,0.137441,-0.085765,0.150441,-0.085294,0.150491,-0.000294,0.155491,
0.000294,0.155491,0.085294,0.150491,0.085294,0.150491,$1*%
%AMFreePoly1*
4,1,102,-0.508464,0.666036,-0.507003,0.662685,-0.505014,0.609006,-0.496114,0.556591,-0.482239,0.506049,-0.463414,0.456509,-0.439652,0.408984,-0.410940,0.364431,-0.377284,0.322856,-0.339644,0.285216,-0.298068,0.251559,-0.253516,0.222848,-0.205990,0.199085,-0.156450,0.180260,-0.105908,0.166385,-0.053493,0.157485,0.000000,0.155503,0.053493,0.157485,0.105908,0.166385,0.156450,0.180260,
0.205990,0.199085,0.253516,0.222848,0.298068,0.251559,0.339644,0.285216,0.377284,0.322856,0.410940,0.364431,0.439652,0.408984,0.463414,0.456509,0.482239,0.506049,0.496114,0.556591,0.505014,0.609006,0.507003,0.662685,0.508598,0.666164,0.512000,0.667500,0.813000,0.667500,0.816536,0.666036,0.818000,0.662500,0.817991,0.662206,0.812991,0.577206,0.812941,0.576735,
0.799941,0.492735,0.799829,0.492204,0.777829,0.410204,0.777654,0.409674,0.746654,0.330674,0.746472,0.330264,0.708472,0.254264,0.708187,0.253767,0.661187,0.181767,0.660899,0.181369,0.607899,0.115369,0.607536,0.114964,0.547536,0.054964,0.547131,0.054601,0.481131,0.001601,0.480733,0.001313,0.408733,-0.045687,0.408236,-0.045972,0.332236,-0.083972,0.331826,-0.084154,
0.252826,-0.115154,0.252296,-0.115329,0.170296,-0.137329,0.169765,-0.137441,0.085765,-0.150441,0.085235,-0.150494,0.000235,-0.154494,-0.000235,-0.154494,-0.085235,-0.150494,-0.085765,-0.150441,-0.169765,-0.137441,-0.170296,-0.137329,-0.252296,-0.115329,-0.252826,-0.115154,-0.331826,-0.084154,-0.332236,-0.083972,-0.408236,-0.045972,-0.408733,-0.045687,-0.480733,0.001313,-0.481131,0.001601,
-0.547131,0.054601,-0.547536,0.054964,-0.607536,0.114964,-0.607899,0.115369,-0.660899,0.181369,-0.661187,0.181767,-0.708187,0.253767,-0.708472,0.254264,-0.746472,0.330264,-0.746654,0.330674,-0.777654,0.409674,-0.777829,0.410204,-0.799829,0.492204,-0.799941,0.492735,-0.812941,0.576735,-0.812991,0.577206,-0.817991,0.662206,-0.816737,0.665822,-0.813294,0.667491,-0.813000,0.667500,
-0.512000,0.667500,-0.508464,0.666036,-0.508464,0.666036,$1*%
G04 Aperture macros list end*
%TA.AperFunction,SMDPad,CuDef*%
%ADD10R,1.300000X0.300000*%
%TD*%
%TA.AperFunction,SMDPad,CuDef*%
%ADD11R,2.200000X1.800000*%
%TD*%
%TA.AperFunction,ComponentPad*%
%ADD12R,1.700000X1.700000*%
%TD*%
%TA.AperFunction,ComponentPad*%
%ADD13C,1.700000*%
%TD*%
%TA.AperFunction,SMDPad,CuDef*%
%ADD14R,0.725000X0.522000*%
%TD*%
%TA.AperFunction,SMDPad,CuDef*%
%ADD15FreePoly0,0.000000*%
%TD*%
%TA.AperFunction,SMDPad,CuDef*%
%ADD16FreePoly1,0.000000*%
%TD*%
%TA.AperFunction,SMDPad,CuDef*%
%ADD17R,0.300000X0.300000*%
%TD*%
%TA.AperFunction,ViaPad*%
%ADD18C,0.600000*%
%TD*%
%TA.AperFunction,Conductor*%
%ADD19C,0.400000*%
%TD*%
%TA.AperFunction,Conductor*%
%ADD20C,0.250000*%
%TD*%
G04 APERTURE END LIST*
D10*
%TO.P,J1,1,Pin_1_1*%
%TO.N,/3V3*%
X148150000Y-84000000D03*
%TO.P,J1,2,Pin_2_2*%
%TO.N,/1V8*%
X148150000Y-83500000D03*
%TO.P,J1,3,Pin_3_3*%
%TO.N,GND*%
X148150000Y-83000000D03*
%TO.P,J1,4,Pin_4_4*%
%TO.N,/CLK1*%
X148150000Y-82500000D03*
%TO.P,J1,5,Pin_5_5*%
%TO.N,/DAT1*%
X148150000Y-82000000D03*
%TO.P,J1,6,Pin_6_6*%
%TO.N,/MTR_PWM*%
X148150000Y-81500000D03*
%TO.P,J1,7,Pin_7_7*%
%TO.N,/WAKE*%
X148150000Y-81000000D03*
%TO.P,J1,8,Pin_8_8*%
%TO.N,unconnected-(J1-Pin_8-Pad8)*%
X148150000Y-80500000D03*
D11*
%TO.P,J1,MP*%
%TO.N,N/C*%
X151400000Y-85900000D03*
X151400000Y-78600000D03*
%TD*%
D12*
%TO.P,M1,1,+_1*%
%TO.N,/3V3_MTR*%
X169800000Y-78660000D03*
D13*
%TO.P,M1,2,-_2*%
%TO.N,/MTR_SW*%
X169800000Y-81200000D03*
%TD*%
D14*
%TO.P,MK1,1,DATA_1*%
%TO.N,/DAT1*%
X157537500Y-80363000D03*
%TO.P,MK1,2,SELECT_2*%
%TO.N,/1V8*%
X157537500Y-81183000D03*
D15*
%TO.P,MK1,3_1,GND_3_1*%
%TO.N,GND*%
X158375000Y-81772500D03*
D16*
%TO.P,MK1,3_2,GND_3_2*%
X158375000Y-83097500D03*
D17*
%TO.P,MK1,4,WAKE_4*%
%TO.N,/WAKE*%
X157350000Y-83200000D03*
%TO.P,MK1,5,THSEL_5*%
%TO.N,unconnected-(MK1-THSEL-Pad5)*%
X159400000Y-83200000D03*
D14*
%TO.P,MK1,6,CLK_6*%
%TO.N,/CLK1*%
X159212500Y-81183000D03*
%TO.P,MK1,7,VDD_7*%
%TO.N,/1V8*%
X159212500Y-80363000D03*
%TD*%
D18*
%TO.N,/WAKE*%
X157051000Y-82000000D03*
X153585810Y-79985810D03*
%TO.N,/1V8*%
X155800000Y-82400000D03*
%TO.N,GND*%
X166200000Y-87400000D03*
X160600000Y-81800000D03*
X163200000Y-88600000D03*
X155100000Y-81600000D03*
%TO.N,/3V3*%
X161851000Y-84000000D03*
%TO.N,/MTR_PWM*%
X167600000Y-84000000D03*
%TD*%
%TO.N,/1V8*%
D19*
X158550500Y-79701000D02*
X158550500Y-80649500D01*
X158550500Y-80649500D02*
X158017000Y-81183000D01*
X158017000Y-81183000D02*
X157537500Y-81183000D01*
%TO.N,/WAKE*%
D20*
X157051000Y-82000000D02*
X157051000Y-82901000D01*
X157051000Y-82901000D02*
X157350000Y-83200000D01*
X152819108Y-81000000D02*
X153709554Y-80109554D01*
X148150000Y-81000000D02*
X152819108Y-81000000D01*
X153709554Y-80109554D02*
X153585810Y-79985810D01*
%TO.N,/1V8*%
X148150000Y-83500000D02*
X155100000Y-83500000D01*
X155100000Y-83500000D02*
X155200000Y-83400000D01*
%TO.N,GND*%
X148150000Y-83000000D02*
X153800000Y-83000000D01*
%TO.N,/CLK1*%
X148150000Y-82500000D02*
X153231124Y-82500000D01*
%TO.N,/DAT1*%
X156369314Y-78724000D02*
X153093314Y-82000000D01*
X148150000Y-82000000D02*
X153093314Y-82000000D01*
%TO.N,/MTR_PWM*%
X156182504Y-78273000D02*
X152927752Y-81527752D01*
X148150000Y-81500000D02*
X152900000Y-81500000D01*
%TO.N,/1V8*%
D19*
X155800000Y-80825000D02*
X155800000Y-80675000D01*
D20*
X155200000Y-83400000D02*
X155200000Y-83000000D01*
D19*
X155800000Y-82400000D02*
X155800000Y-80825000D01*
D20*
X155200000Y-83000000D02*
X155800000Y-82400000D01*
D19*
X156774000Y-79701000D02*
X158550500Y-79701000D01*
X155800000Y-80675000D02*
X156774000Y-79701000D01*
X158550500Y-79701000D02*
X159212500Y-80363000D01*
%TO.N,GND*%
D20*
X159600000Y-81800000D02*
X160600000Y-81800000D01*
X158375000Y-81772500D02*
X158402500Y-81800000D01*
D19*
X164400000Y-87400000D02*
X163200000Y-88600000D01*
D20*
X153800000Y-83000000D02*
X155200000Y-81600000D01*
D19*
X155200000Y-81600000D02*
X155100000Y-81600000D01*
X166200000Y-87400000D02*
X164400000Y-87400000D01*
D20*
X158402500Y-81800000D02*
X159600000Y-81800000D01*
%TO.N,/3V3*%
D19*
X161851000Y-84000000D02*
X158550000Y-87301000D01*
X149899000Y-87301000D02*
X148150000Y-85552000D01*
X158550000Y-87301000D02*
X149899000Y-87301000D01*
X161800000Y-84000000D02*
X161851000Y-84000000D01*
X148150000Y-85552000D02*
X148150000Y-84151000D01*
%TO.N,/CLK1*%
D20*
X159901000Y-81107000D02*
X159825000Y-81183000D01*
X159901000Y-79776000D02*
X159901000Y-81107000D01*
X153231124Y-82500000D02*
X156556124Y-79175000D01*
X159825000Y-81183000D02*
X159212500Y-81183000D01*
X159300000Y-79175000D02*
X159901000Y-79776000D01*
X156556124Y-79175000D02*
X159300000Y-79175000D01*
%TO.N,/MTR_PWM*%
X161873000Y-78273000D02*
X156182504Y-78273000D01*
X167600000Y-84000000D02*
X161873000Y-78273000D01*
%TO.N,/DAT1*%
X156855876Y-80363000D02*
X156426000Y-80792876D01*
X156426000Y-80792876D02*
X156426000Y-85174000D01*
X161226000Y-82326000D02*
X161226000Y-80463190D01*
X159486810Y-78724000D02*
X156369314Y-78724000D01*
X158352000Y-85200000D02*
X161226000Y-82326000D01*
X157537500Y-80363000D02*
X156855876Y-80363000D01*
X156400000Y-85200000D02*
X158352000Y-85200000D01*
X156426000Y-85174000D02*
X156400000Y-85200000D01*
X161226000Y-80463190D02*
X159486810Y-78724000D01*
%TD*%
%TA.AperFunction,Conductor*%
%TO.N,GND*%
G36*
X172042539Y-76720185D02*
G01*
X172088294Y-76772989D01*
X172099500Y-76824500D01*
X172099500Y-88775500D01*
X172079815Y-88842539D01*
X172027011Y-88888294D01*
X171975500Y-88899500D01*
X147224500Y-88899500D01*
X147157461Y-88879815D01*
X147111706Y-88827011D01*
X147100500Y-88775500D01*
X147100500Y-84713769D01*
X147109143Y-84684332D01*
X147115667Y-84654343D01*
X147118898Y-84651111D01*
X147120185Y-84646730D01*
X147143365Y-84626644D01*
X147165072Y-84604937D01*
X147169537Y-84603965D01*
X147172989Y-84600975D01*
X147203357Y-84596608D01*
X147233345Y-84590085D01*
X147239465Y-84591416D01*
X147242147Y-84591031D01*
X147267832Y-84597587D01*
X147368832Y-84635257D01*
X147424766Y-84677128D01*
X147449184Y-84742592D01*
X147449500Y-84751439D01*
X147449500Y-85483006D01*
X147449500Y-85620994D01*
X147449500Y-85620996D01*
X147449499Y-85620996D01*
X147476418Y-85756322D01*
X147476421Y-85756332D01*
X147529222Y-85883807D01*
X147605887Y-85998545D01*
X149452454Y-87845112D01*
X149567192Y-87921777D01*
X149694667Y-87974578D01*
X149694672Y-87974580D01*
X149694676Y-87974580D01*
X149694677Y-87974581D01*
X149830004Y-88001500D01*
X149830007Y-88001500D01*
X158618996Y-88001500D01*
X158710040Y-87983389D01*
X158754328Y-87974580D01*
X158818069Y-87948177D01*
X158881807Y-87921777D01*
X158881808Y-87921776D01*
X158881811Y-87921775D01*
X158996543Y-87845114D01*
X162045586Y-84796069D01*
X162085810Y-84769192D01*
X162150031Y-84742592D01*
X162230173Y-84709397D01*
X162230176Y-84709395D01*
X162230179Y-84709394D01*
X162361289Y-84621789D01*
X162472789Y-84510289D01*
X162560394Y-84379179D01*
X162620737Y-84233497D01*
X162651500Y-84078842D01*
X162651500Y-83921158D01*
X162651500Y-83921155D01*
X162651499Y-83921153D01*
X162633127Y-83828792D01*
X162620737Y-83766503D01*
X162616494Y-83756260D01*
X162560397Y-83620827D01*
X162560390Y-83620814D01*
X162472789Y-83489711D01*
X162472786Y-83489707D01*
X162361292Y-83378213D01*
X162361288Y-83378210D01*
X162230185Y-83290609D01*
X162230172Y-83290602D01*
X162084501Y-83230264D01*
X162084489Y-83230261D01*
X161929845Y-83199500D01*
X161929842Y-83199500D01*
X161772158Y-83199500D01*
X161772155Y-83199500D01*
X161617510Y-83230261D01*
X161617498Y-83230264D01*
X161491516Y-83282447D01*
X161422046Y-83289916D01*
X161359567Y-83258640D01*
X161323916Y-83198551D01*
X161326410Y-83128726D01*
X161356381Y-83080207D01*
X161624729Y-82811860D01*
X161624733Y-82811858D01*
X161711858Y-82724733D01*
X161778163Y-82625501D01*
X161780312Y-82622285D01*
X161827463Y-82508451D01*
X161851500Y-82387607D01*
X161851500Y-82264393D01*
X161851500Y-80401584D01*
X161848110Y-80384543D01*
X161842197Y-80354815D01*
X161837323Y-80330310D01*
X161837323Y-80330309D01*
X161831694Y-80302011D01*
X161827463Y-80280738D01*
X161805808Y-80228458D01*
X161796785Y-80206673D01*
X161780315Y-80166910D01*
X161780313Y-80166907D01*
X161780312Y-80166904D01*
X161739206Y-80105386D01*
X161711858Y-80064457D01*
X161624733Y-79977332D01*
X161624729Y-79977329D01*
X160757581Y-79110181D01*
X160724096Y-79048858D01*
X160729080Y-78979166D01*
X160770952Y-78923233D01*
X160836416Y-78898816D01*
X160845262Y-78898500D01*
X161562548Y-78898500D01*
X161629587Y-78918185D01*
X161650229Y-78934819D01*
X166774205Y-84058795D01*
X166807690Y-84120118D01*
X166808141Y-84122285D01*
X166830261Y-84233489D01*
X166830264Y-84233501D01*
X166890602Y-84379172D01*
X166890609Y-84379185D01*
X166978210Y-84510288D01*
X166978213Y-84510292D01*
X167089707Y-84621786D01*
X167089711Y-84621789D01*
X167220814Y-84709390D01*
X167220827Y-84709397D01*
X167365187Y-84769192D01*
X167366503Y-84769737D01*
X167498897Y-84796072D01*
X167521153Y-84800499D01*
X167521156Y-84800500D01*
X167521158Y-84800500D01*
X167678844Y-84800500D01*
X167678845Y-84800499D01*
X167833497Y-84769737D01*
X167979179Y-84709394D01*
X168110289Y-84621789D01*
X168221789Y-84510289D01*
X168309394Y-84379179D01*
X168369737Y-84233497D01*
X168400500Y-84078842D01*
X168400500Y-83921158D01*
X168400500Y-83921155D01*
X168400499Y-83921153D01*
X168382127Y-83828792D01*
X168369737Y-83766503D01*
X168365494Y-83756260D01*
X168309397Y-83620827D01*
X168309390Y-83620814D01*
X168221789Y-83489711D01*
X168221786Y-83489707D01*
X168110292Y-83378213D01*
X168110288Y-83378210D01*
X167979185Y-83290609D01*
X167979172Y-83290602D01*
X167833501Y-83230264D01*
X167833489Y-83230261D01*
X167722285Y-83208141D01*
X167660374Y-83175756D01*
X167658795Y-83174205D01*
X162363198Y-77878608D01*
X162358860Y-77874270D01*
X162358858Y-77874267D01*
X162331076Y-77846485D01*
X162331074Y-77846482D01*
X162271733Y-77787141D01*
X162234308Y-77762135D01*
X168449500Y-77762135D01*
X168449500Y-79557870D01*
X168449501Y-79557876D01*
X168455908Y-79617483D01*
X168506202Y-79752328D01*
X168506206Y-79752335D01*
X168592452Y-79867544D01*
X168592455Y-79867547D01*
X168707664Y-79953793D01*
X168707671Y-79953797D01*
X168839082Y-80002810D01*
X168895016Y-80044681D01*
X168919433Y-80110145D01*
X168904582Y-80178418D01*
X168883431Y-80206673D01*
X168769889Y-80320215D01*
X168644951Y-80492179D01*
X168548444Y-80681585D01*
X168482753Y-80883760D01*
X168449500Y-81093713D01*
X168449500Y-81306286D01*
X168480778Y-81503772D01*
X168482754Y-81516243D01*
X168541769Y-81697873D01*
X168548444Y-81718414D01*
X168644951Y-81907820D01*
X168769890Y-82079786D01*
X168920213Y-82230109D01*
X169092179Y-82355048D01*
X169092181Y-82355049D01*
X169092184Y-82355051D01*
X169281588Y-82451557D01*
X169483757Y-82517246D01*
X169693713Y-82550500D01*
X169693714Y-82550500D01*
X169906286Y-82550500D01*
X169906287Y-82550500D01*
X170116243Y-82517246D01*
X170318412Y-82451557D01*
X170507816Y-82355051D01*
X170529789Y-82339086D01*
X170679786Y-82230109D01*
X170679788Y-82230106D01*
X170679792Y-82230104D01*
X170830104Y-82079792D01*
X170830106Y-82079788D01*
X170830109Y-82079786D01*
X170955048Y-81907820D01*
X170955047Y-81907820D01*
X170955051Y-81907816D01*
X171051557Y-81718412D01*
X171117246Y-81516243D01*
X171150500Y-81306287D01*
X171150500Y-81093713D01*
X171117246Y-80883757D01*
X171051557Y-80681588D01*
X170955051Y-80492184D01*
X170955049Y-80492181D01*
X170955048Y-80492179D01*
X170830109Y-80320213D01*
X170716569Y-80206673D01*
X170683084Y-80145350D01*
X170688068Y-80075658D01*
X170729940Y-80019725D01*
X170760915Y-80002810D01*
X170892331Y-79953796D01*
X171007546Y-79867546D01*
X171093796Y-79752331D01*
X171144091Y-79617483D01*
X171150500Y-79557873D01*
X171150499Y-77762128D01*
X171144091Y-77702517D01*
X171132536Y-77671537D01*
X171093797Y-77567671D01*
X171093793Y-77567664D01*
X171007547Y-77452455D01*
X171007544Y-77452452D01*
X170892335Y-77366206D01*
X170892328Y-77366202D01*
X170757482Y-77315908D01*
X170757483Y-77315908D01*
X170697883Y-77309501D01*
X170697881Y-77309500D01*
X170697873Y-77309500D01*
X170697864Y-77309500D01*
X168902129Y-77309500D01*
X168902123Y-77309501D01*
X168842516Y-77315908D01*
X168707671Y-77366202D01*
X168707664Y-77366206D01*
X168592455Y-77452452D01*
X168592452Y-77452455D01*
X168506206Y-77567664D01*
X168506202Y-77567671D01*
X168455908Y-77702517D01*
X168450490Y-77752915D01*
X168449501Y-77762123D01*
X168449500Y-77762135D01*
X162234308Y-77762135D01*
X162220509Y-77752915D01*
X162169287Y-77718689D01*
X162169286Y-77718688D01*
X162169283Y-77718686D01*
X162169280Y-77718685D01*
X162095607Y-77688169D01*
X162095600Y-77688167D01*
X162088792Y-77685347D01*
X162055452Y-77671537D01*
X161994936Y-77659500D01*
X161990219Y-77658561D01*
X161990213Y-77658560D01*
X161934611Y-77647500D01*
X161934607Y-77647500D01*
X161934606Y-77647500D01*
X156244110Y-77647500D01*
X156120897Y-77647500D01*
X156060568Y-77659500D01*
X156060567Y-77659499D01*
X156000059Y-77671535D01*
X156000049Y-77671538D01*
X155886220Y-77718687D01*
X155804387Y-77773367D01*
X155783770Y-77787142D01*
X155783764Y-77787147D01*
X154234472Y-79336439D01*
X154173149Y-79369924D01*
X154103457Y-79364940D01*
X154077900Y-79351860D01*
X153964995Y-79276419D01*
X153964982Y-79276412D01*
X153819311Y-79216074D01*
X153819299Y-79216071D01*
X153664655Y-79185310D01*
X153664652Y-79185310D01*
X153506968Y-79185310D01*
X153506965Y-79185310D01*
X153352320Y-79216071D01*
X153352308Y-79216074D01*
X153206637Y-79276412D01*
X153206623Y-79276420D01*
X153193387Y-79285264D01*
X153126709Y-79306140D01*
X153059329Y-79287654D01*
X153012641Y-79235674D01*
X153000499Y-79182160D01*
X153000499Y-77652129D01*
X153000498Y-77652123D01*
X153000497Y-77652116D01*
X152994091Y-77592517D01*
X152984823Y-77567669D01*
X152943797Y-77457671D01*
X152943793Y-77457664D01*
X152857547Y-77342455D01*
X152857544Y-77342452D01*
X152742335Y-77256206D01*
X152742328Y-77256202D01*
X152607482Y-77205908D01*
X152607483Y-77205908D01*
X152547883Y-77199501D01*
X152547881Y-77199500D01*
X152547873Y-77199500D01*
X152547864Y-77199500D01*
X150252129Y-77199500D01*
X150252123Y-77199501D01*
X150192516Y-77205908D01*
X150057671Y-77256202D01*
X150057664Y-77256206D01*
X149942455Y-77342452D01*
X149942452Y-77342455D01*
X149856206Y-77457664D01*
X149856202Y-77457671D01*
X149805908Y-77592517D01*
X149799997Y-77647500D01*
X149799501Y-77652123D01*
X149799500Y-77652135D01*
X149799500Y-79547870D01*
X149799501Y-79547876D01*
X149805908Y-79607483D01*
X149856202Y-79742328D01*
X149856206Y-79742335D01*
X149942452Y-79857544D01*
X149942455Y-79857547D01*
X150057664Y-79943793D01*
X150057671Y-79943797D01*
X150192517Y-79994091D01*
X150192516Y-79994091D01*
X150195837Y-79994448D01*
X150252127Y-80000500D01*
X152547872Y-80000499D01*
X152607483Y-79994091D01*
X152607485Y-79994090D01*
X152607487Y-79994090D01*
X152615031Y-79992308D01*
X152615536Y-79994448D01*
X152674068Y-79990252D01*
X152735397Y-80023727D01*
X152768893Y-80085044D01*
X152763920Y-80154737D01*
X152735412Y-80199104D01*
X152596335Y-80338182D01*
X152535015Y-80371666D01*
X152508656Y-80374500D01*
X149419664Y-80374500D01*
X149352625Y-80354815D01*
X149306870Y-80302011D01*
X149296374Y-80263754D01*
X149296170Y-80261857D01*
X149294091Y-80242517D01*
X149245571Y-80112427D01*
X149243797Y-80107671D01*
X149243793Y-80107664D01*
X149157547Y-79992455D01*
X149157544Y-79992452D01*
X149042335Y-79906206D01*
X149042328Y-79906202D01*
X148907482Y-79855908D01*
X148907483Y-79855908D01*
X148847883Y-79849501D01*
X148847881Y-79849500D01*
X148847873Y-79849500D01*
X148847864Y-79849500D01*
X147452129Y-79849500D01*
X147452123Y-79849501D01*
X147392515Y-79855909D01*
X147267832Y-79902412D01*
X147198141Y-79907396D01*
X147136818Y-79873910D01*
X147103334Y-79812587D01*
X147100500Y-79786230D01*
X147100500Y-76824500D01*
X147120185Y-76757461D01*
X147172989Y-76711706D01*
X147224500Y-76700500D01*
X171975500Y-76700500D01*
X172042539Y-76720185D01*
G37*
%TD.AperFunction*%
%TA.AperFunction,Conductor*%
G36*
X158443039Y-82955185D02*
G01*
X158488794Y-83007989D01*
X158500000Y-83059500D01*
X158500000Y-83756260D01*
X158511238Y-83755430D01*
X158512281Y-83755325D01*
X158538765Y-83751940D01*
X158609554Y-83740984D01*
X158678815Y-83750183D01*
X158732109Y-83795367D01*
X158752514Y-83862190D01*
X158733552Y-83929438D01*
X158716202Y-83951206D01*
X158129229Y-84538181D01*
X158067906Y-84571666D01*
X158041548Y-84574500D01*
X157175500Y-84574500D01*
X157108461Y-84554815D01*
X157062706Y-84502011D01*
X157051500Y-84450500D01*
X157051500Y-83974499D01*
X157071185Y-83907460D01*
X157123989Y-83861705D01*
X157175495Y-83850499D01*
X157547872Y-83850499D01*
X157607483Y-83844091D01*
X157742331Y-83793796D01*
X157778790Y-83766503D01*
X157847672Y-83714938D01*
X157913136Y-83690520D01*
X157960836Y-83697135D01*
X157961037Y-83696525D01*
X157963736Y-83697412D01*
X157990571Y-83705415D01*
X158072554Y-83727411D01*
X158099182Y-83733786D01*
X158100228Y-83734006D01*
X158127232Y-83738939D01*
X158211227Y-83751939D01*
X158237718Y-83755325D01*
X158238761Y-83755430D01*
X158250000Y-83756261D01*
X158250000Y-83059500D01*
X158252550Y-83050814D01*
X158251262Y-83041853D01*
X158262240Y-83017812D01*
X158269685Y-82992461D01*
X158276525Y-82986533D01*
X158280287Y-82978297D01*
X158302521Y-82964007D01*
X158322489Y-82946706D01*
X158333003Y-82944418D01*
X158339065Y-82940523D01*
X158374000Y-82935500D01*
X158376000Y-82935500D01*
X158443039Y-82955185D01*
G37*
%TD.AperFunction*%
%TA.AperFunction,Conductor*%
G36*
X155018834Y-81699394D02*
G01*
X155074767Y-81741266D01*
X155099184Y-81806730D01*
X155099500Y-81815576D01*
X155099500Y-81974684D01*
X155090061Y-82022136D01*
X155030264Y-82166498D01*
X155030261Y-82166508D01*
X155008141Y-82277714D01*
X154999375Y-82294470D01*
X154995356Y-82312949D01*
X154976613Y-82337985D01*
X154975756Y-82339625D01*
X154974205Y-82341203D01*
X154865804Y-82449605D01*
X154801270Y-82514139D01*
X154801267Y-82514142D01*
X154778787Y-82536622D01*
X154714142Y-82601266D01*
X154692607Y-82633497D01*
X154662322Y-82678821D01*
X154645686Y-82703717D01*
X154645685Y-82703719D01*
X154629699Y-82742315D01*
X154606654Y-82797952D01*
X154562814Y-82852356D01*
X154496520Y-82874421D01*
X154492093Y-82874500D01*
X154040576Y-82874500D01*
X153973537Y-82854815D01*
X153927782Y-82802011D01*
X153917838Y-82732853D01*
X153946863Y-82669297D01*
X153952895Y-82662819D01*
X154887819Y-81727895D01*
X154949142Y-81694410D01*
X155018834Y-81699394D01*
G37*
%TD.AperFunction*%
%TA.AperFunction,Conductor*%
G36*
X160519834Y-81475271D02*
G01*
X160575767Y-81517143D01*
X160600184Y-81582607D01*
X160600500Y-81591453D01*
X160600500Y-82015547D01*
X160580815Y-82082586D01*
X160564181Y-82103228D01*
X160022073Y-82645336D01*
X159994698Y-82660283D01*
X159968303Y-82676928D01*
X159964280Y-82676893D01*
X159960750Y-82678821D01*
X159929627Y-82676595D01*
X159898435Y-82676327D01*
X159893918Y-82674041D01*
X159891058Y-82673837D01*
X159866458Y-82661390D01*
X159863198Y-82659255D01*
X159792331Y-82606204D01*
X159768770Y-82597416D01*
X159757166Y-82589817D01*
X159743144Y-82573351D01*
X159725832Y-82560391D01*
X159720941Y-82547278D01*
X159711867Y-82536622D01*
X159708973Y-82515188D01*
X159701416Y-82494926D01*
X159701314Y-82478800D01*
X159702111Y-82465237D01*
X159702770Y-82450220D01*
X159702787Y-82449605D01*
X159701674Y-82421144D01*
X159702019Y-82405862D01*
X159702111Y-82404761D01*
X159697110Y-82319744D01*
X159695107Y-82295603D01*
X159695001Y-82294615D01*
X159691940Y-82271231D01*
X159678940Y-82187237D01*
X159674011Y-82160257D01*
X159673783Y-82159173D01*
X159672425Y-82153499D01*
X159663296Y-82146298D01*
X159622856Y-82089322D01*
X159619639Y-82019526D01*
X159654667Y-81959071D01*
X159696765Y-81932764D01*
X159763644Y-81907820D01*
X159817331Y-81887796D01*
X159913996Y-81815432D01*
X159918326Y-81813234D01*
X159920094Y-81811147D01*
X159932326Y-81806127D01*
X159952032Y-81796124D01*
X159957990Y-81794301D01*
X160007452Y-81784463D01*
X160050811Y-81766503D01*
X160121286Y-81737312D01*
X160180309Y-81697873D01*
X160223733Y-81668858D01*
X160310858Y-81581733D01*
X160386858Y-81505733D01*
X160388819Y-81503772D01*
X160450142Y-81470287D01*
X160519834Y-81475271D01*
G37*
%TD.AperFunction*%
%TD*%
M02*
