%TF.GenerationSoftware,KiCad,Pcbnew,10.0.1*%
%TF.CreationDate,2026-05-01T00:09:41-07:00*%
%TF.ProjectId,PCB3-R,50434233-2d52-42e6-9b69-6361645f7063,rev?*%
%TF.SameCoordinates,Original*%
%TF.FileFunction,Paste,Top*%
%TF.FilePolarity,Positive*%
%FSLAX46Y46*%
G04 Gerber Fmt 4.6, Leading zero omitted, Abs format (unit mm)*
G04 Created by KiCad (PCBNEW 10.0.1) date 2026-05-01 00:09:41*
%MOMM*%
%LPD*%
G01*
G04 APERTURE LIST*
%ADD10C,0.010000*%
%ADD11R,1.300000X0.300000*%
%ADD12R,2.200000X1.800000*%
G04 APERTURE END LIST*
D10*
%TO.C,MK1*%
X157485000Y-83335000D02*
X157215000Y-83335000D01*
X157215000Y-83065000D01*
X157485000Y-83065000D01*
X157485000Y-83335000D01*
G36*
X157485000Y-83335000D02*
G01*
X157215000Y-83335000D01*
X157215000Y-83065000D01*
X157485000Y-83065000D01*
X157485000Y-83335000D01*
G37*
X157850000Y-80574000D02*
X157225000Y-80574000D01*
X157225000Y-80152000D01*
X157850000Y-80152000D01*
X157850000Y-80574000D01*
G36*
X157850000Y-80574000D02*
G01*
X157225000Y-80574000D01*
X157225000Y-80152000D01*
X157850000Y-80152000D01*
X157850000Y-80574000D01*
G37*
X157850000Y-81394000D02*
X157225000Y-81394000D01*
X157225000Y-80972000D01*
X157850000Y-80972000D01*
X157850000Y-81394000D01*
G36*
X157850000Y-81394000D02*
G01*
X157225000Y-81394000D01*
X157225000Y-80972000D01*
X157850000Y-80972000D01*
X157850000Y-81394000D01*
G37*
X159525000Y-80574000D02*
X158900000Y-80574000D01*
X158900000Y-80152000D01*
X159525000Y-80152000D01*
X159525000Y-80574000D01*
G36*
X159525000Y-80574000D02*
G01*
X158900000Y-80574000D01*
X158900000Y-80152000D01*
X159525000Y-80152000D01*
X159525000Y-80574000D01*
G37*
X159525000Y-81394000D02*
X158900000Y-81394000D01*
X158900000Y-80972000D01*
X159525000Y-80972000D01*
X159525000Y-81394000D01*
G36*
X159525000Y-81394000D02*
G01*
X158900000Y-81394000D01*
X158900000Y-80972000D01*
X159525000Y-80972000D01*
X159525000Y-81394000D01*
G37*
X159535000Y-83335000D02*
X159265000Y-83335000D01*
X159265000Y-83065000D01*
X159535000Y-83065000D01*
X159535000Y-83335000D01*
G36*
X159535000Y-83335000D02*
G01*
X159265000Y-83335000D01*
X159265000Y-83065000D01*
X159535000Y-83065000D01*
X159535000Y-83335000D01*
G37*
X158325000Y-81674141D02*
X158325000Y-81925000D01*
X158298000Y-81928000D01*
X158275000Y-81932000D01*
X158253000Y-81937000D01*
X158230000Y-81943000D01*
X158208000Y-81950000D01*
X158186000Y-81958000D01*
X158165000Y-81968000D01*
X158144000Y-81978000D01*
X158123000Y-81988000D01*
X158103000Y-82000000D01*
X158084000Y-82013000D01*
X158065000Y-82027000D01*
X158047000Y-82041000D01*
X158029000Y-82057000D01*
X158013000Y-82073000D01*
X157997000Y-82089000D01*
X157981000Y-82107000D01*
X157967000Y-82125000D01*
X157953000Y-82144000D01*
X157940000Y-82163000D01*
X157928000Y-82183000D01*
X157918000Y-82204000D01*
X157908000Y-82225000D01*
X157898000Y-82246000D01*
X157890000Y-82268000D01*
X157883000Y-82290000D01*
X157877000Y-82313000D01*
X157872000Y-82335000D01*
X157868000Y-82358000D01*
X157865000Y-82385000D01*
X157614000Y-82385000D01*
X157618000Y-82346000D01*
X157623000Y-82310000D01*
X157630000Y-82274000D01*
X157638000Y-82239000D01*
X157648000Y-82204000D01*
X157660000Y-82169000D01*
X157674000Y-82135000D01*
X157689000Y-82102000D01*
X157706000Y-82070000D01*
X157724000Y-82038000D01*
X157743000Y-82008000D01*
X157764000Y-81978000D01*
X157787000Y-81950000D01*
X157811000Y-81922000D01*
X157836000Y-81896000D01*
X157862000Y-81871000D01*
X157890000Y-81847000D01*
X157918000Y-81824000D01*
X157948000Y-81803000D01*
X157978000Y-81784000D01*
X158010000Y-81766000D01*
X158042000Y-81749000D01*
X158075000Y-81734000D01*
X158109000Y-81720000D01*
X158144000Y-81708000D01*
X158179000Y-81698000D01*
X158214000Y-81690000D01*
X158250000Y-81683000D01*
X158286000Y-81678000D01*
X158325000Y-81674000D01*
X158325000Y-81674141D01*
G36*
X158325000Y-81674141D02*
G01*
X158325000Y-81925000D01*
X158298000Y-81928000D01*
X158275000Y-81932000D01*
X158253000Y-81937000D01*
X158230000Y-81943000D01*
X158208000Y-81950000D01*
X158186000Y-81958000D01*
X158165000Y-81968000D01*
X158144000Y-81978000D01*
X158123000Y-81988000D01*
X158103000Y-82000000D01*
X158084000Y-82013000D01*
X158065000Y-82027000D01*
X158047000Y-82041000D01*
X158029000Y-82057000D01*
X158013000Y-82073000D01*
X157997000Y-82089000D01*
X157981000Y-82107000D01*
X157967000Y-82125000D01*
X157953000Y-82144000D01*
X157940000Y-82163000D01*
X157928000Y-82183000D01*
X157918000Y-82204000D01*
X157908000Y-82225000D01*
X157898000Y-82246000D01*
X157890000Y-82268000D01*
X157883000Y-82290000D01*
X157877000Y-82313000D01*
X157872000Y-82335000D01*
X157868000Y-82358000D01*
X157865000Y-82385000D01*
X157614000Y-82385000D01*
X157618000Y-82346000D01*
X157623000Y-82310000D01*
X157630000Y-82274000D01*
X157638000Y-82239000D01*
X157648000Y-82204000D01*
X157660000Y-82169000D01*
X157674000Y-82135000D01*
X157689000Y-82102000D01*
X157706000Y-82070000D01*
X157724000Y-82038000D01*
X157743000Y-82008000D01*
X157764000Y-81978000D01*
X157787000Y-81950000D01*
X157811000Y-81922000D01*
X157836000Y-81896000D01*
X157862000Y-81871000D01*
X157890000Y-81847000D01*
X157918000Y-81824000D01*
X157948000Y-81803000D01*
X157978000Y-81784000D01*
X158010000Y-81766000D01*
X158042000Y-81749000D01*
X158075000Y-81734000D01*
X158109000Y-81720000D01*
X158144000Y-81708000D01*
X158179000Y-81698000D01*
X158214000Y-81690000D01*
X158250000Y-81683000D01*
X158286000Y-81678000D01*
X158325000Y-81674000D01*
X158325000Y-81674141D01*
G37*
X157868000Y-82512000D02*
X157872000Y-82535000D01*
X157877000Y-82557000D01*
X157883000Y-82580000D01*
X157890000Y-82602000D01*
X157898000Y-82624000D01*
X157908000Y-82645000D01*
X157918000Y-82666000D01*
X157928000Y-82687000D01*
X157940000Y-82707000D01*
X157953000Y-82726000D01*
X157967000Y-82745000D01*
X157981000Y-82763000D01*
X157997000Y-82781000D01*
X158013000Y-82797000D01*
X158029000Y-82813000D01*
X158047000Y-82829000D01*
X158065000Y-82843000D01*
X158084000Y-82857000D01*
X158103000Y-82870000D01*
X158123000Y-82882000D01*
X158144000Y-82892000D01*
X158165000Y-82902000D01*
X158186000Y-82912000D01*
X158208000Y-82920000D01*
X158230000Y-82927000D01*
X158253000Y-82933000D01*
X158275000Y-82938000D01*
X158298000Y-82942000D01*
X158325000Y-82945000D01*
X158325000Y-82945060D01*
X158325000Y-83196000D01*
X158286000Y-83192000D01*
X158250000Y-83187000D01*
X158214000Y-83180000D01*
X158179000Y-83172000D01*
X158144000Y-83162000D01*
X158109000Y-83150000D01*
X158075000Y-83136000D01*
X158042000Y-83121000D01*
X158010000Y-83104000D01*
X157978000Y-83086000D01*
X157948000Y-83067000D01*
X157918000Y-83046000D01*
X157890000Y-83023000D01*
X157862000Y-82999000D01*
X157836000Y-82974000D01*
X157811000Y-82948000D01*
X157787000Y-82920000D01*
X157764000Y-82892000D01*
X157743000Y-82862000D01*
X157724000Y-82832000D01*
X157706000Y-82800000D01*
X157689000Y-82768000D01*
X157674000Y-82735000D01*
X157660000Y-82701000D01*
X157648000Y-82666000D01*
X157638000Y-82631000D01*
X157630000Y-82596000D01*
X157623000Y-82560000D01*
X157618000Y-82524000D01*
X157614000Y-82485000D01*
X157865000Y-82485000D01*
X157868000Y-82512000D01*
G36*
X157868000Y-82512000D02*
G01*
X157872000Y-82535000D01*
X157877000Y-82557000D01*
X157883000Y-82580000D01*
X157890000Y-82602000D01*
X157898000Y-82624000D01*
X157908000Y-82645000D01*
X157918000Y-82666000D01*
X157928000Y-82687000D01*
X157940000Y-82707000D01*
X157953000Y-82726000D01*
X157967000Y-82745000D01*
X157981000Y-82763000D01*
X157997000Y-82781000D01*
X158013000Y-82797000D01*
X158029000Y-82813000D01*
X158047000Y-82829000D01*
X158065000Y-82843000D01*
X158084000Y-82857000D01*
X158103000Y-82870000D01*
X158123000Y-82882000D01*
X158144000Y-82892000D01*
X158165000Y-82902000D01*
X158186000Y-82912000D01*
X158208000Y-82920000D01*
X158230000Y-82927000D01*
X158253000Y-82933000D01*
X158275000Y-82938000D01*
X158298000Y-82942000D01*
X158325000Y-82945000D01*
X158325000Y-82945060D01*
X158325000Y-83196000D01*
X158286000Y-83192000D01*
X158250000Y-83187000D01*
X158214000Y-83180000D01*
X158179000Y-83172000D01*
X158144000Y-83162000D01*
X158109000Y-83150000D01*
X158075000Y-83136000D01*
X158042000Y-83121000D01*
X158010000Y-83104000D01*
X157978000Y-83086000D01*
X157948000Y-83067000D01*
X157918000Y-83046000D01*
X157890000Y-83023000D01*
X157862000Y-82999000D01*
X157836000Y-82974000D01*
X157811000Y-82948000D01*
X157787000Y-82920000D01*
X157764000Y-82892000D01*
X157743000Y-82862000D01*
X157724000Y-82832000D01*
X157706000Y-82800000D01*
X157689000Y-82768000D01*
X157674000Y-82735000D01*
X157660000Y-82701000D01*
X157648000Y-82666000D01*
X157638000Y-82631000D01*
X157630000Y-82596000D01*
X157623000Y-82560000D01*
X157618000Y-82524000D01*
X157614000Y-82485000D01*
X157865000Y-82485000D01*
X157868000Y-82512000D01*
G37*
X158464000Y-81678000D02*
X158500000Y-81683000D01*
X158536000Y-81690000D01*
X158571000Y-81698000D01*
X158606000Y-81708000D01*
X158641000Y-81720000D01*
X158675000Y-81734000D01*
X158708000Y-81749000D01*
X158740000Y-81766000D01*
X158772000Y-81784000D01*
X158802000Y-81803000D01*
X158832000Y-81824000D01*
X158860000Y-81847000D01*
X158888000Y-81871000D01*
X158914000Y-81896000D01*
X158939000Y-81922000D01*
X158963000Y-81950000D01*
X158986000Y-81978000D01*
X159007000Y-82008000D01*
X159026000Y-82038000D01*
X159044000Y-82070000D01*
X159061000Y-82102000D01*
X159076000Y-82135000D01*
X159090000Y-82169000D01*
X159102000Y-82204000D01*
X159112000Y-82239000D01*
X159120000Y-82274000D01*
X159127000Y-82310000D01*
X159132000Y-82346000D01*
X159136000Y-82385000D01*
X158885000Y-82385000D01*
X158882000Y-82358000D01*
X158878000Y-82335000D01*
X158873000Y-82313000D01*
X158867000Y-82290000D01*
X158860000Y-82268000D01*
X158852000Y-82246000D01*
X158842000Y-82225000D01*
X158832000Y-82204000D01*
X158822000Y-82183000D01*
X158810000Y-82163000D01*
X158797000Y-82144000D01*
X158783000Y-82125000D01*
X158769000Y-82107000D01*
X158753000Y-82089000D01*
X158737000Y-82073000D01*
X158721000Y-82057000D01*
X158703000Y-82041000D01*
X158685000Y-82027000D01*
X158666000Y-82013000D01*
X158647000Y-82000000D01*
X158627000Y-81988000D01*
X158606000Y-81978000D01*
X158585000Y-81968000D01*
X158564000Y-81958000D01*
X158542000Y-81950000D01*
X158520000Y-81943000D01*
X158497000Y-81937000D01*
X158475000Y-81932000D01*
X158452000Y-81928000D01*
X158425000Y-81925000D01*
X158425000Y-81924941D01*
X158425000Y-81674000D01*
X158464000Y-81678000D01*
G36*
X158464000Y-81678000D02*
G01*
X158500000Y-81683000D01*
X158536000Y-81690000D01*
X158571000Y-81698000D01*
X158606000Y-81708000D01*
X158641000Y-81720000D01*
X158675000Y-81734000D01*
X158708000Y-81749000D01*
X158740000Y-81766000D01*
X158772000Y-81784000D01*
X158802000Y-81803000D01*
X158832000Y-81824000D01*
X158860000Y-81847000D01*
X158888000Y-81871000D01*
X158914000Y-81896000D01*
X158939000Y-81922000D01*
X158963000Y-81950000D01*
X158986000Y-81978000D01*
X159007000Y-82008000D01*
X159026000Y-82038000D01*
X159044000Y-82070000D01*
X159061000Y-82102000D01*
X159076000Y-82135000D01*
X159090000Y-82169000D01*
X159102000Y-82204000D01*
X159112000Y-82239000D01*
X159120000Y-82274000D01*
X159127000Y-82310000D01*
X159132000Y-82346000D01*
X159136000Y-82385000D01*
X158885000Y-82385000D01*
X158882000Y-82358000D01*
X158878000Y-82335000D01*
X158873000Y-82313000D01*
X158867000Y-82290000D01*
X158860000Y-82268000D01*
X158852000Y-82246000D01*
X158842000Y-82225000D01*
X158832000Y-82204000D01*
X158822000Y-82183000D01*
X158810000Y-82163000D01*
X158797000Y-82144000D01*
X158783000Y-82125000D01*
X158769000Y-82107000D01*
X158753000Y-82089000D01*
X158737000Y-82073000D01*
X158721000Y-82057000D01*
X158703000Y-82041000D01*
X158685000Y-82027000D01*
X158666000Y-82013000D01*
X158647000Y-82000000D01*
X158627000Y-81988000D01*
X158606000Y-81978000D01*
X158585000Y-81968000D01*
X158564000Y-81958000D01*
X158542000Y-81950000D01*
X158520000Y-81943000D01*
X158497000Y-81937000D01*
X158475000Y-81932000D01*
X158452000Y-81928000D01*
X158425000Y-81925000D01*
X158425000Y-81924941D01*
X158425000Y-81674000D01*
X158464000Y-81678000D01*
G37*
X159132000Y-82524000D02*
X159127000Y-82560000D01*
X159120000Y-82596000D01*
X159112000Y-82631000D01*
X159102000Y-82666000D01*
X159090000Y-82701000D01*
X159076000Y-82735000D01*
X159061000Y-82768000D01*
X159044000Y-82800000D01*
X159026000Y-82832000D01*
X159007000Y-82862000D01*
X158986000Y-82892000D01*
X158963000Y-82920000D01*
X158939000Y-82948000D01*
X158914000Y-82974000D01*
X158888000Y-82999000D01*
X158860000Y-83023000D01*
X158832000Y-83046000D01*
X158802000Y-83067000D01*
X158772000Y-83086000D01*
X158740000Y-83104000D01*
X158708000Y-83121000D01*
X158675000Y-83136000D01*
X158641000Y-83150000D01*
X158606000Y-83162000D01*
X158571000Y-83172000D01*
X158536000Y-83180000D01*
X158500000Y-83187000D01*
X158464000Y-83192000D01*
X158425000Y-83196000D01*
X158425000Y-83195860D01*
X158425000Y-82945000D01*
X158452000Y-82942000D01*
X158475000Y-82938000D01*
X158497000Y-82933000D01*
X158520000Y-82927000D01*
X158542000Y-82920000D01*
X158564000Y-82912000D01*
X158585000Y-82902000D01*
X158606000Y-82892000D01*
X158627000Y-82882000D01*
X158647000Y-82870000D01*
X158666000Y-82857000D01*
X158685000Y-82843000D01*
X158703000Y-82829000D01*
X158721000Y-82813000D01*
X158737000Y-82797000D01*
X158753000Y-82781000D01*
X158769000Y-82763000D01*
X158783000Y-82745000D01*
X158797000Y-82726000D01*
X158810000Y-82707000D01*
X158822000Y-82687000D01*
X158832000Y-82666000D01*
X158842000Y-82645000D01*
X158852000Y-82624000D01*
X158860000Y-82602000D01*
X158867000Y-82580000D01*
X158873000Y-82557000D01*
X158878000Y-82535000D01*
X158882000Y-82512000D01*
X158885000Y-82485000D01*
X159136000Y-82485000D01*
X159132000Y-82524000D01*
G36*
X159132000Y-82524000D02*
G01*
X159127000Y-82560000D01*
X159120000Y-82596000D01*
X159112000Y-82631000D01*
X159102000Y-82666000D01*
X159090000Y-82701000D01*
X159076000Y-82735000D01*
X159061000Y-82768000D01*
X159044000Y-82800000D01*
X159026000Y-82832000D01*
X159007000Y-82862000D01*
X158986000Y-82892000D01*
X158963000Y-82920000D01*
X158939000Y-82948000D01*
X158914000Y-82974000D01*
X158888000Y-82999000D01*
X158860000Y-83023000D01*
X158832000Y-83046000D01*
X158802000Y-83067000D01*
X158772000Y-83086000D01*
X158740000Y-83104000D01*
X158708000Y-83121000D01*
X158675000Y-83136000D01*
X158641000Y-83150000D01*
X158606000Y-83162000D01*
X158571000Y-83172000D01*
X158536000Y-83180000D01*
X158500000Y-83187000D01*
X158464000Y-83192000D01*
X158425000Y-83196000D01*
X158425000Y-83195860D01*
X158425000Y-82945000D01*
X158452000Y-82942000D01*
X158475000Y-82938000D01*
X158497000Y-82933000D01*
X158520000Y-82927000D01*
X158542000Y-82920000D01*
X158564000Y-82912000D01*
X158585000Y-82902000D01*
X158606000Y-82892000D01*
X158627000Y-82882000D01*
X158647000Y-82870000D01*
X158666000Y-82857000D01*
X158685000Y-82843000D01*
X158703000Y-82829000D01*
X158721000Y-82813000D01*
X158737000Y-82797000D01*
X158753000Y-82781000D01*
X158769000Y-82763000D01*
X158783000Y-82745000D01*
X158797000Y-82726000D01*
X158810000Y-82707000D01*
X158822000Y-82687000D01*
X158832000Y-82666000D01*
X158842000Y-82645000D01*
X158852000Y-82624000D01*
X158860000Y-82602000D01*
X158867000Y-82580000D01*
X158873000Y-82557000D01*
X158878000Y-82535000D01*
X158882000Y-82512000D01*
X158885000Y-82485000D01*
X159136000Y-82485000D01*
X159132000Y-82524000D01*
G37*
%TD*%
D11*
%TO.C,J1*%
X148150000Y-84000000D03*
X148150000Y-83500000D03*
X148150000Y-83000000D03*
X148150000Y-82500000D03*
X148150000Y-82000000D03*
X148150000Y-81500000D03*
X148150000Y-81000000D03*
X148150000Y-80500000D03*
D12*
X151400000Y-85900000D03*
X151400000Y-78600000D03*
%TD*%
M02*
