%TF.GenerationSoftware,KiCad,Pcbnew,10.0.1*%
%TF.CreationDate,2026-05-01T00:09:41-07:00*%
%TF.ProjectId,PCB3-R,50434233-2d52-42e6-9b69-6361645f7063,rev?*%
%TF.SameCoordinates,Original*%
%TF.FileFunction,Legend,Top*%
%TF.FilePolarity,Positive*%
%FSLAX46Y46*%
G04 Gerber Fmt 4.6, Leading zero omitted, Abs format (unit mm)*
G04 Created by KiCad (PCBNEW 10.0.1) date 2026-05-01 00:09:41*
%MOMM*%
%LPD*%
G01*
G04 APERTURE LIST*
%ADD10C,0.150000*%
%ADD11C,0.120000*%
%ADD12C,0.127000*%
%ADD13C,0.200000*%
G04 APERTURE END LIST*
D10*
X145754819Y-82583333D02*
X146469104Y-82583333D01*
X146469104Y-82583333D02*
X146611961Y-82630952D01*
X146611961Y-82630952D02*
X146707200Y-82726190D01*
X146707200Y-82726190D02*
X146754819Y-82869047D01*
X146754819Y-82869047D02*
X146754819Y-82964285D01*
X146754819Y-81583333D02*
X146754819Y-82154761D01*
X146754819Y-81869047D02*
X145754819Y-81869047D01*
X145754819Y-81869047D02*
X145897676Y-81964285D01*
X145897676Y-81964285D02*
X145992914Y-82059523D01*
X145992914Y-82059523D02*
X146040533Y-82154761D01*
X168990476Y-76734819D02*
X168990476Y-75734819D01*
X168990476Y-75734819D02*
X169323809Y-76449104D01*
X169323809Y-76449104D02*
X169657142Y-75734819D01*
X169657142Y-75734819D02*
X169657142Y-76734819D01*
X170657142Y-76734819D02*
X170085714Y-76734819D01*
X170371428Y-76734819D02*
X170371428Y-75734819D01*
X170371428Y-75734819D02*
X170276190Y-75877676D01*
X170276190Y-75877676D02*
X170180952Y-75972914D01*
X170180952Y-75972914D02*
X170085714Y-76020533D01*
X158343878Y-79331467D02*
X158343878Y-78544065D01*
X158343878Y-78544065D02*
X158606346Y-79106495D01*
X158606346Y-79106495D02*
X158868813Y-78544065D01*
X158868813Y-78544065D02*
X158868813Y-79331467D01*
X159243766Y-79331467D02*
X159243766Y-78544065D01*
X159693710Y-79331467D02*
X159356252Y-78881523D01*
X159693710Y-78544065D02*
X159243766Y-78994009D01*
X160443617Y-79331467D02*
X159993673Y-79331467D01*
X160218645Y-79331467D02*
X160218645Y-78544065D01*
X160218645Y-78544065D02*
X160143654Y-78656551D01*
X160143654Y-78656551D02*
X160068664Y-78731542D01*
X160068664Y-78731542D02*
X159993673Y-78769037D01*
%TO.C,J1*%
D11*
X148700000Y-85900000D02*
X150040000Y-85900000D01*
X152760000Y-85900000D02*
X154500000Y-85900000D01*
X154500000Y-85900000D02*
X154500000Y-78600000D01*
X148700000Y-84410000D02*
X148700000Y-85900000D01*
X148700000Y-84410000D02*
X147500000Y-84410000D01*
X148700000Y-80090000D02*
X148700000Y-78600000D01*
X148700000Y-78600000D02*
X150040000Y-78600000D01*
X154500000Y-78600000D02*
X152760000Y-78600000D01*
%TO.C,M1*%
X168420000Y-77280000D02*
X169800000Y-77280000D01*
X168420000Y-78660000D02*
X168420000Y-77280000D01*
X168420000Y-79930000D02*
X168420000Y-82580000D01*
X168420000Y-79930000D02*
X171180000Y-79930000D01*
X168420000Y-82580000D02*
X171180000Y-82580000D01*
X171180000Y-79930000D02*
X171180000Y-82580000D01*
%TO.C,MK1*%
D12*
X157050000Y-81760000D02*
X157050000Y-82730000D01*
X158215000Y-79975000D02*
X158535000Y-79975000D01*
X159700000Y-81760000D02*
X159700000Y-82730000D01*
D13*
X156625000Y-80363000D02*
G75*
G02*
X156425000Y-80363000I-100000J0D01*
G01*
X156425000Y-80363000D02*
G75*
G02*
X156625000Y-80363000I100000J0D01*
G01*
%TD*%
M02*
