%TF.GenerationSoftware,KiCad,Pcbnew,10.0.1*%
%TF.CreationDate,2026-05-01T00:11:08-07:00*%
%TF.ProjectId,PCB2-L,50434232-2d4c-42e6-9b69-6361645f7063,rev?*%
%TF.SameCoordinates,Original*%
%TF.FileFunction,Soldermask,Top*%
%TF.FilePolarity,Negative*%
%FSLAX46Y46*%
G04 Gerber Fmt 4.6, Leading zero omitted, Abs format (unit mm)*
G04 Created by KiCad (PCBNEW 10.0.1) date 2026-05-01 00:11:08*
%MOMM*%
%LPD*%
G01*
G04 APERTURE LIST*
%ADD10C,0.862500*%
%ADD11C,0.010000*%
%ADD12R,1.300000X0.300000*%
%ADD13R,2.200000X1.800000*%
%ADD14R,1.700000X1.700000*%
%ADD15C,1.700000*%
%ADD16C,0.500000*%
G04 APERTURE END LIST*
%TO.C,MK1*%
D10*
X158806250Y-82435000D02*
G75*
G02*
X157943750Y-82435000I-431250J0D01*
G01*
X157943750Y-82435000D02*
G75*
G02*
X158806250Y-82435000I431250J0D01*
G01*
D11*
X157950000Y-80674000D02*
X157125000Y-80674000D01*
X157125000Y-80052000D01*
X157950000Y-80052000D01*
X157950000Y-80674000D01*
G36*
X157950000Y-80674000D02*
G01*
X157125000Y-80674000D01*
X157125000Y-80052000D01*
X157950000Y-80052000D01*
X157950000Y-80674000D01*
G37*
X157950000Y-81494000D02*
X157125000Y-81494000D01*
X157125000Y-80872000D01*
X157950000Y-80872000D01*
X157950000Y-81494000D01*
G36*
X157950000Y-81494000D02*
G01*
X157125000Y-81494000D01*
X157125000Y-80872000D01*
X157950000Y-80872000D01*
X157950000Y-81494000D01*
G37*
X157550000Y-83400000D02*
X157150000Y-83400000D01*
X157150000Y-83000000D01*
X157550000Y-83000000D01*
X157550000Y-83400000D01*
G36*
X157550000Y-83400000D02*
G01*
X157150000Y-83400000D01*
X157150000Y-83000000D01*
X157550000Y-83000000D01*
X157550000Y-83400000D01*
G37*
X159625000Y-80674000D02*
X158800000Y-80674000D01*
X158800000Y-80052000D01*
X159625000Y-80052000D01*
X159625000Y-80674000D01*
G36*
X159625000Y-80674000D02*
G01*
X158800000Y-80674000D01*
X158800000Y-80052000D01*
X159625000Y-80052000D01*
X159625000Y-80674000D01*
G37*
X159625000Y-81494000D02*
X158800000Y-81494000D01*
X158800000Y-80872000D01*
X159625000Y-80872000D01*
X159625000Y-81494000D01*
G36*
X159625000Y-81494000D02*
G01*
X158800000Y-81494000D01*
X158800000Y-80872000D01*
X159625000Y-80872000D01*
X159625000Y-81494000D01*
G37*
X159600000Y-83400000D02*
X159200000Y-83400000D01*
X159200000Y-83000000D01*
X159600000Y-83000000D01*
X159600000Y-83400000D01*
G36*
X159600000Y-83400000D02*
G01*
X159200000Y-83400000D01*
X159200000Y-83000000D01*
X159600000Y-83000000D01*
X159600000Y-83400000D01*
G37*
%TD*%
D12*
%TO.C,J1*%
X148400000Y-84000000D03*
X148400000Y-83500000D03*
X148400000Y-83000000D03*
X148400000Y-82500000D03*
X148400000Y-82000000D03*
X148400000Y-81500000D03*
X148400000Y-81000000D03*
X148400000Y-80500000D03*
D13*
X151650000Y-85900000D03*
X151650000Y-78600000D03*
%TD*%
D14*
%TO.C,M1*%
X169800000Y-78660000D03*
D15*
X169800000Y-81200000D03*
%TD*%
D16*
%TO.C,MK1*%
X158375000Y-82435000D03*
%TD*%
M02*
